<svg xmlns="http://www.w3.org/2000/svg" xmlns:xlink="http://www.w3.org/1999/xlink" width="221.018" height="138.07" viewBox="0 0 221.018 138.07"><defs><linearGradient id="a" x1="0.019" x2="1" y2="1" gradientUnits="objectBoundingBox"><stop offset="0" stop-color="#0f3f6e"/><stop offset="1" stop-color="#661051"/></linearGradient></defs><g transform="translate(-3227.724 -430.824)"><path d="M3279.52,432.877s18.228,5.072,23.934,6.023,30.433,6.023,41.053,6.816,23.935,1.743,26.946,1.427c0,0,.446,1.38,1.1.822s.372-.385,1.116.133a2.448,2.448,0,0,0,1.953.7,9.443,9.443,0,0,1,2.6.651c.466.093,1.3,1.3,1.954.744s.744-1.767,1.115-.465-.371.93,0,1.116.837,1.023,1.023.558,0-1.116.929-.465,1.023,1.488,1.581,1.023,2.139,0,3.069-.372,4.463-.568,3.719.507-2.51.33-4.184,2.1-1.117.279-1.674,1.767-1.489,1.116-1.86,1.58-.464,1.488-.836,1.674l.372-.186a5.773,5.773,0,0,0,2.139-.558c.743-.465,2.231-1.116,2.417-.558s.465-.279.186.558-.743,1.3-.093,1.3,1.487.186,1.674-.744,1.673-1.674,2.79-1.674,1.209-1.116,1.674-1.488,1.488-.837,1.581-1.209,1.209-.744,1.581-.744,1.209.186.651.744-2.232,1.3-2.324,1.673-.28,1.767.093,1.767.279-.93.743-.93,0,0,.93.372,1.582,1.488,2.418,1.488,2.324,1.116,2.7.186.743-.465,1.022-1.023,1.3-.744,2.139-.837,2.325-1.116,2.417-.465-.558,2.232.651,1.767.373-1.116,1.208-.465,1.116,1.518,1.675,1.6.465,1.1,1.115.636a1.756,1.756,0,0,1,1.209-.372s.558.242,0,.493-1.86-.065-2.417,0-2.325-.213-2.046.9-.744.465-.744,0-1.766-1.86-2.51-1.209a8.39,8.39,0,0,1-1.768,1.116s-.929-.163-1.022.709-.279,2.452-.558,1.895.279-1.4,0-1.674-1.488.093-1.953.651-.743,2.325-1.116,3.348-1.116,1.86-1.023,2.6-1.673,1.953-.929,1.581a6.818,6.818,0,0,0,2.324-2.7c.557-1.116,1.581-3.44,1.766-3.069s-1.86,5.115-1.674,5.394a1.137,1.137,0,0,1-.372,1.3,6.834,6.834,0,0,0-.743,3.906c.186,1.209,1.115,2.6.837,3.626a5.367,5.367,0,0,0,1.115,4.185c.93.837,2.046,1.209,2.79,0s2.139-2.232,1.953-4.835-.28-2.325-.837-3.626-1.116-1.86-.744-2.79a4.016,4.016,0,0,0,.373-2.7c-.279-.837-.466-1.116.465-1.581s2.046-2.976,2.232-2.7-.372,1.953.187,1.767,1.022-.372,1.022-.93-.372-1.395.465-1.674.187-1.3.187-1.3.371-.93.929-.93,1.674,1.116,2.231,1.116a4.741,4.741,0,0,1,2.512.558,2.446,2.446,0,0,1,.557,2.232c-.279.65,1.588,3.069.1,4.37s-1.026,3.534,1.019,1.488,3.069-.558,3.255.372,1.394,3.44.929,4.742a25.832,25.832,0,0,1-.837,2.883c-.558,1.209-.837,2.511.093,2.976s1.209-.093,2.139-.372,4.371-1.953,5.208-2.325,3.067-1.209,4-2.232,2.976-1.86,2.372-2.883-2.059-3.068.109-3.348,3.1-.372,5.33-.558,3.348-1.581,3.255-2.6-.837-2.139.837-4.742,2.232-2.883,4.743-3.441,10.042-2.7,10.228-3.348.466-.651,1.209-1.394a2.877,2.877,0,0,0,1.116-2.418c0-1.209.651-1.767,0-2.79s.651-6.788,1.395-7.253,0,.651.837.651,2.046-1.209,2.976-.651,1.953,1.58,3.255,4.928,2.138,2.883,3.254,3.441,2.139,2.046,1.86,2.975a6.965,6.965,0,0,1-2.325,2.7,4.935,4.935,0,0,1-2.7.744c-.558.093-.186-.094-.558,1.209s.372.465-1.115,2.232a13.825,13.825,0,0,0-2.511,3.626c-.186.651-1.581,2.046-1.023,3.162s-.837,1.209,0,1.674a5.617,5.617,0,0,1,2.046,1.674c.744.93,1.488,1.953,1.767.93s.372-2.7.743-1.488.93,2.232.279,2.325a8.225,8.225,0,0,0-2.511.372c-.744.372-1.022.744-1.952,1.3s-.279,1.023-2.418,1.488-1.86.186-3.348,1.3-4.743,2.232-3.627,2.511a5.1,5.1,0,0,0,3.813-1.116c1.116-.837,2.232-2.232,1.953-1.488s-.464,1.023.744.558,0,.279-1.116,1.023a14.705,14.705,0,0,1-2.51,1.488c-1.023.465-2.79.279-2.79,1.674s-1.116,6.881-1.674,7.067-1.3-1.4-1.3-.466a3.906,3.906,0,0,0,.929,2.6,5.414,5.414,0,0,1,1.581,3.348c.186,1.859-1.209,3.905-2.046,3.533a5.092,5.092,0,0,1-2.046-1.674c-.558-.742-.558-.093-.837-2.231s-.837-3.348-.186-4.277.464-1.3-.744.558-.744,2.045-.558,3.255,1.3,2.417,1.023,2.975.093,1.581-.557,2.325-.558.186.371,1.116,1.4,1.953.837,2.046-2.417-2.046-3.162-1.209,1.209.465,2.6,1.3,1.953.28,2.511.652a2.94,2.94,0,0,1,.744,2.6c-.279.651-4,1.581-2.976,2.139s2.7-1.116,3.441-.744.279,3.441-.837,3.534-4.184.372-2.79.651,2.976.094,2.7.931a4.442,4.442,0,0,1-2.6,2.045c-.465-.093-2.7.558-2.325,1.4s-.371.744-.371,2.139-.373,1.488-1.489,1.581-4,2.324-4.37,3.44a30.817,30.817,0,0,1-2.232,3.906c-.465.836-3.906,1.487-3.534,1.766s.187,1.488-.185,1.488-.466-.186-.558.651a12.227,12.227,0,0,1-1.3,2.883c-.559,1.208-1.4,3.626-.838,4.835s1.767,5.952,2.7,7.626,1.3,3.44,1.859,4.556,1.674,1.3,2.325,2.7a33.368,33.368,0,0,1,1.767,6.788c.093,1.209-.558,1.767-.837,3.348s.465,2.418-.373,2.79-3.719,1.674-3.44.651a8.062,8.062,0,0,0,.371-3.162c-.185-.651-.7-.093-1.767-.651a2.484,2.484,0,0,1-1.581-2.232c0-.93-.279,0-1.023,0s-1.766-.372-1.3-.93,1.581-1.023.93-1.4-3.255,0-2.883-1.209.93-.651.837-2.417-.093-2.511-.837-1.674-2.417,1.116-1.86-.372,1.4-2.232.651-4.37-2.046,0-2.231-1.21-.279-.557-.93-1.767-.93-.744-1.674-1.766-2.6-1.4-2.883-.652-1.673.465-1.581,1.117-1.767.651-2.51.837a1.3,1.3,0,0,1-1.489-1.116c0-.557.372-1.953-.372-1.674a3.872,3.872,0,0,1-2.324,0c-1.208-.185.186,0-1.208-.185s-.094.279-1.489.557-1.116-.837-1.953-.465-1.86,2.6-2.511,1.488-1.208-5.114-1.3-4.371.28,3.162-.093,3.441-1.116-.186-2.7.186-2.418.185-3.255.557-3.533-1.209-3.905-.372.093,1.674,1.394,1.3,2.139.093,2.139,1.208.093,2.139.837,2.7,2.231.744.465,1.209-2.046-.465-2.511-.93.464-.279-1.488.372-2.139,1.953-4,.28-1.022-2.418-1.86-2.6-2.418-.651-1.766.651,0,.279-1.768-.093-2.51-1.4-4.092-1.209-1.574-.557-3.855.558-2.374.743-3.4,2.232a6.38,6.38,0,0,1-3.442,2.7c-1.86.837-3.719.744-5.393,2.139s-2.324,2.139-2.6,4.929-.279,6.044-.279,7.253-.465.651-1.023.094a3.367,3.367,0,0,0-2.418-.93c-1.022,0-3.44-.185-4.091-1.394s-2.79-3.905-2.7-5.486-2.325-3.813-2.79-4.836-2.046-5.114-3.348-6.044A16.375,16.375,0,0,0,3340,544.58c-1.395-.186-2.325.094-2.7.558s-1.115,3.068-1.767,3.72-2.51-1.86-3.534-2.326-2.6-.185-3.719-4.835-2.232-3.255-2.6-3.813-2.882-4.184-3.255-4.835-7.9-1.767-7.9-1.767l-.465,2.046-12.554-1.954-15.529-8.74,1.023-1.3-10.973-1.116a6.478,6.478,0,0,0,0-2.232c-.186-1.58-1.488-2.139-1.581-3.534s-2.046-.465-2.325-1.3,1.023-.465,0-1.766-1.674.186-2.232-1.209-1.209-2.325-2.883-2.511-3.72-.094-3.534-1.488.558-.744.651-2.6,1.022-.094-.186-2.6-1.581-2.883-2.324-4.556-.093-1.488-.93-2.7a6.416,6.416,0,0,1-.651-4.649c.372-1.116,1.023-2.046.279-2.417s.565-2.976-.461-3.627-3.165-.558-2.7-2.882,1.023-2.232,1.116-3.348-1.3-4,.279-6.045,2.325-3.626,2.325-5.3-.093-2.7,0-4.092,2.418-4,3.534-5.951,2.7-5.579,3.812-7.718,1.395-2.79,1.395-4,1.86-4.464,1.488-6.6-.279-4.232.279-4.208,4.278,2.534,5.394,3.092-.372,2.6,1.023,2.6,1.488.372,1.581-1.58S3279.52,432.877,3279.52,432.877Z" transform="translate(-25.835 -1.764)" stroke="#fff" stroke-width="0.1" fill="url(#a)"/><path d="M3434.845,565.57a.631.631,0,0,1-.531-.206.526.526,0,0,1-.065-.478,8.007,8.007,0,0,0,.372-3.034c-.049-.171-.063-.179-.38-.19a3.089,3.089,0,0,1-2.977-2.758v-.05a1.329,1.329,0,0,1-.786.287c-.5,0-1.378-.179-1.6-.659a.592.592,0,0,1,.12-.659,3.893,3.893,0,0,1,.6-.539c.167-.132.446-.351.473-.447-.006,0-.026-.022-.078-.052a3.51,3.51,0,0,0-1.022-.18c-.781-.075-1.588-.152-1.9-.614a.782.782,0,0,1-.073-.691,2.319,2.319,0,0,1,.52-.938c.208-.242.359-.418.307-1.4l-.012-.238a7.656,7.656,0,0,0-.156-1.534,1.563,1.563,0,0,0-.255.243,2.3,2.3,0,0,1-1.568.766.8.8,0,0,1-.686-.312,1.14,1.14,0,0,1-.005-1.067c.126-.334.263-.628.4-.91a3.653,3.653,0,0,0,.255-3.3c-.294-.844-.636-.844-.764-.844a1.66,1.66,0,0,0-.467.1,1.559,1.559,0,0,1-.447.094c-.216,0-.489-.1-.564-.6-.1-.623-.149-.677-.29-.82a3.354,3.354,0,0,1-.615-.87,2,2,0,0,0-.793-.914,2.881,2.881,0,0,1-.864-.827,2.56,2.56,0,0,0-1.9-.944c-.145,0-.489.023-.57.237a1.407,1.407,0,0,1-1.083.737c-.4.113-.5.165-.485.263a.531.531,0,0,1-.106.4c-.283.373-1.069.476-1.829.575-.292.038-.567.074-.753.12a1.447,1.447,0,0,1-1.333-.417,1.368,1.368,0,0,1-.45-.929,4.851,4.851,0,0,1,.043-.514c.03-.258.1-.864,0-.963a.529.529,0,0,0-.091.025,2.64,2.64,0,0,1-.974.192,8.066,8.066,0,0,1-1.192-.136l-.278-.044c-.269-.041-.443-.068-.556-.1l-.647-.086a3.309,3.309,0,0,0-.49-.04c-.062.267-.251.461-.92.594a2.363,2.363,0,0,1-.461.05,1.275,1.275,0,0,1-.985-.425c-.123-.12-.174-.162-.25-.162a.553.553,0,0,0-.207.056,3.435,3.435,0,0,0-.868.822c-.444.512-.864,1-1.316,1a.731.731,0,0,1-.628-.428,11.253,11.253,0,0,1-.8-2.572c.045,1,.009,1.521-.245,1.713a.83.83,0,0,1-.514.142c-.117,0-.245-.011-.392-.024-.192-.017-.409-.036-.667-.036a5.213,5.213,0,0,0-1.212.145,12.349,12.349,0,0,1-1.841.275,4.211,4.211,0,0,0-1.373.268,1.038,1.038,0,0,1-.428.079,6.419,6.419,0,0,1-1.6-.351,6.135,6.135,0,0,0-1.45-.327c-.256,0-.291.081-.3.107a.852.852,0,0,0-.01.8c.173.266.586.334,1.123.181a3.231,3.231,0,0,1,.878-.135,1.44,1.44,0,0,1,1.563,1.571c0,1.2.124,2.043.742,2.508a4.1,4.1,0,0,0,.683.376c.41.194.733.347.705.645-.023.258-.287.417-1.005.606a3.687,3.687,0,0,1-.921.134,1.86,1.86,0,0,1-1.6-.868,3.178,3.178,0,0,0-.218-.258.915.915,0,0,1-.066-.07,6.029,6.029,0,0,1-1.179.5,6.481,6.481,0,0,0-1.328.643,2.436,2.436,0,0,1-1.227.469,2.631,2.631,0,0,1-1.677-.881,4.08,4.08,0,0,1-1.432-2.139c-.087-.308-.107-.361-.322-.409l-.211-.047a5.461,5.461,0,0,0-1.094-.181c-.2,0-.29.039-.312.075-.007.011-.061.117.115.467.251.5.333.686.229.854a.274.274,0,0,1-.24.131,1.173,1.173,0,0,1-.458-.17,6.233,6.233,0,0,0-1.558-.57,7.84,7.84,0,0,1-1.857-.683,4.043,4.043,0,0,0-1.812-.542,2.953,2.953,0,0,0-.346.021,4.641,4.641,0,0,1-.544.033,5.366,5.366,0,0,1-.742-.059,4.13,4.13,0,0,0-.536-.046,4.376,4.376,0,0,0-1.956.607c-.645.315-1.108.509-1.481.666a3.059,3.059,0,0,0-1.825,1.487,6.577,6.577,0,0,1-3.539,2.779,13.106,13.106,0,0,1-2.131.693,7.6,7.6,0,0,0-3.208,1.412c-1.65,1.376-2.252,2.1-2.52,4.77-.278,2.778-.278,6.012-.278,7.23,0,.287,0,.957-.473.957-.265,0-.52-.257-.843-.583l-.112-.113a3.136,3.136,0,0,0-2.25-.861c-.817,0-3.541-.109-4.3-1.519-.163-.3-.423-.7-.725-1.168-.924-1.422-2.073-3.193-2-4.445.056-.963-.965-2.266-1.785-3.313a8.528,8.528,0,0,1-.984-1.411c-.072-.156-.169-.384-.287-.662-.627-1.472-1.933-4.538-2.983-5.287a16.12,16.12,0,0,0-5.287-2.376,2.9,2.9,0,0,0-2.48.471,8.19,8.19,0,0,0-.575,1.3,8.782,8.782,0,0,1-1.209,2.438.6.6,0,0,1-.433.176c-.545,0-1.252-.656-2-1.352a7.009,7.009,0,0,0-1.367-1.1,4.507,4.507,0,0,0-.48-.171c-1.011-.319-2.4-.757-3.372-4.823-.8-3.315-1.543-3.4-1.989-3.455a.716.716,0,0,1-.581-.282c-.1-.15-.355-.522-.682-1-.918-1.341-2.3-3.366-2.582-3.85-.31-.352-4.026-1.093-7.516-1.617l-.416,1.831a.238.238,0,0,1-.268.181l-12.553-1.953a.207.207,0,0,1-.08-.028l-15.529-8.74a.238.238,0,0,1-.07-.354l.757-.963-10.544-1.072a.238.238,0,0,1-.172-.1.235.235,0,0,1-.031-.2,6.52,6.52,0,0,0-.008-2.139,3.661,3.661,0,0,0-.8-1.743,3.436,3.436,0,0,1-.786-1.8c-.036-.528-.358-.6-1.084-.656-.5-.034-1.058-.073-1.229-.587a.732.732,0,0,1,.251-.869c.153-.14.254-.232-.212-.826a1.007,1.007,0,0,0-.835-.5c-.082,0-.161.008-.237.015s-.168.017-.248.017c-.438,0-.721-.24-.946-.8-.547-1.368-1.163-2.193-2.689-2.363-.259-.029-.527-.051-.795-.073-1.155-.1-2.245-.185-2.726-.781a1.139,1.139,0,0,1-.222-.9,2.745,2.745,0,0,1,.342-1.125,2.812,2.812,0,0,0,.307-1.459c.041-.807.238-1.035.423-1.179a13.026,13.026,0,0,0-.586-1.311c-.6-1.237-.98-1.941-1.321-2.562s-.627-1.147-1.007-2a4.461,4.461,0,0,1-.443-1.539,1.959,1.959,0,0,0-.465-1.118,6.609,6.609,0,0,1-.681-4.859c.089-.267.191-.518.29-.76.343-.841.448-1.2.108-1.37-.493-.247-.39-.981-.281-1.757.105-.755.226-1.61-.2-1.881a4.56,4.56,0,0,0-.889-.381c-1.027-.363-2.3-.813-1.917-2.749a7.528,7.528,0,0,1,.785-2.315,2.272,2.272,0,0,0,.327-1.006,5.478,5.478,0,0,0-.177-1.264c-.291-1.418-.689-3.359.505-4.9,1.616-2.091,2.275-3.586,2.275-5.156,0-.594-.012-1.1-.023-1.585-.02-.867-.037-1.615.023-2.523.065-.97,1.052-2.368,2.1-3.848.531-.751,1.079-1.527,1.467-2.205.64-1.119,1.438-2.8,2.21-4.432.578-1.219,1.124-2.37,1.6-3.278,1.109-2.125,1.368-2.738,1.368-3.888a8.184,8.184,0,0,1,.6-2.18c.5-1.39,1.113-3.12.893-4.382-.3-1.706-.348-3.732.13-4.3a.478.478,0,0,1,.373-.187,14.818,14.818,0,0,1,3.366,1.841c.883.547,1.716,1.063,2.143,1.276.68.34.6,1.078.544,1.671-.034.336-.069.682.051.815a.431.431,0,0,0,.323.092c.225,0,.417.01.581.018.115.006.216.011.3.011.333,0,.394,0,.459-1.384.092-1.928.145-4.088.146-4.109a.237.237,0,0,1,.3-.223c.182.051,18.281,5.08,23.909,6.018,1.4.234,3.936.713,7.144,1.32,9.681,1.831,25.885,4.9,33.888,5.493,10.36.773,20.581,1.488,25.173,1.488.762,0,1.344-.02,1.73-.061a.238.238,0,0,1,.25.163c.108.331.363.791.562.791a.257.257,0,0,0,.156-.075l.1-.086c.252-.218.367-.317.534-.317a.565.565,0,0,1,.379.2,3.608,3.608,0,0,0,.394.318c.1.068.183.13.262.187a1.967,1.967,0,0,0,1.555.475,6.14,6.14,0,0,1,2.12.48,4.429,4.429,0,0,0,.531.175,1.835,1.835,0,0,1,.675.409,1.808,1.808,0,0,0,.852.477.332.332,0,0,0,.225-.09,2.4,2.4,0,0,0,.464-.629c.154-.265.276-.475.5-.475.293,0,.419.357.531.755a1.544,1.544,0,0,1,.04,1.073,3.249,3.249,0,0,1,.316.3,3.263,3.263,0,0,0,.238.229,2.117,2.117,0,0,0,.056-.238c.044-.224.118-.6.5-.6a1.359,1.359,0,0,1,.714.317,4.165,4.165,0,0,1,.83.8c.117.14.262.314.324.314.008,0,.049,0,.141-.08a1.966,1.966,0,0,1,1.234-.28c.13,0,.266,0,.4.006s.279.007.418.007a3.043,3.043,0,0,0,1.077-.143,7.363,7.363,0,0,1,2.263-.312c1.027,0,1.641.178,1.825.53a.593.593,0,0,1-.085.644,2.423,2.423,0,0,1-1.654.833,4.4,4.4,0,0,0-2.554,1.292c-.884.934-1.2,1.012-1.369,1.055h0c-.042.074-.127.3-.251.631a2.035,2.035,0,0,1-1.474,1.433.874.874,0,0,0-.422.212,2.8,2.8,0,0,0-.348.777c-.036.1-.071.208-.108.307a4.978,4.978,0,0,0,1.819-.5,5.192,5.192,0,0,1,2.139-.809.586.586,0,0,1,.629.377.038.038,0,0,1,0,.008.264.264,0,0,1,.267.091c.082.113.069.151-.083.608a6.522,6.522,0,0,1-.26.638,3.073,3.073,0,0,0-.143.348c.021,0,.047,0,.084,0,.094,0,.193,0,.292.008s.195.008.291.008c.482,0,.762-.091.858-.569.209-1.05,1.8-1.864,3.022-1.864.615,0,.844-.406,1.084-.835a1.989,1.989,0,0,1,.441-.6,6.861,6.861,0,0,1,.64-.425c.307-.189.821-.506.859-.656.137-.55,1.417-.923,1.81-.923.035,0,.849.006,1.039.465.062.15.074.39-.22.684a7.3,7.3,0,0,1-1.249.861,4.743,4.743,0,0,0-1.016.711,4.672,4.672,0,0,0-.1,1.376c.024-.057.049-.128.067-.179.092-.264.23-.663.644-.663.25,0,.316,0,.439.1a2.119,2.119,0,0,0,.579.29,4.3,4.3,0,0,1,1.161.8,2.119,2.119,0,0,0,1.169.675,3.56,3.56,0,0,1,1.121.288,3.432,3.432,0,0,0,1,.269.323.323,0,0,0,.352-.221,1.175,1.175,0,0,1,.756-.812.384.384,0,0,0,.274-.229c.333-.665,1.417-.866,2.325-.967a4.671,4.671,0,0,0,1.046-.344,3.526,3.526,0,0,1,1.12-.337.475.475,0,0,1,.512.418,3.121,3.121,0,0,1-.04.767c-.038.3-.095.746,0,.858.01.011.039.08.367-.046.5-.193.568-.4.6-.5a.313.313,0,0,1,.287-.251c.132,0,.211.062.549.325a5.283,5.283,0,0,1,.9.954c.247.315.443.564.656.594a.91.91,0,0,1,.639.543.767.767,0,0,0,.151.211.336.336,0,0,0,.155-.077,1.944,1.944,0,0,1,1.386-.413.233.233,0,0,1,.055.016c.064.028.389.183.39.468,0,.188-.129.342-.387.458a1.811,1.811,0,0,1-.743.119c-.291,0-.6-.031-.906-.06a4.781,4.781,0,0,0-.838-.04,3.407,3.407,0,0,1-.369.013h-.219c-.333,0-1.027,0-1.222.249-.022.029-.091.116-.033.347a1.877,1.877,0,0,1,.051.287.789.789,0,0,1,.37-.094,2.782,2.782,0,0,1,1.248.6,2.9,2.9,0,0,0,.984.518c.21,0,2.069.018,2.679.627a2.65,2.65,0,0,1,.607,2.493,2.583,2.583,0,0,0,.246.983c.357,1,.9,2.506-.212,3.473a1.864,1.864,0,0,0-.756,1.724.238.238,0,0,0,.247.175c.134,0,.521-.074,1.205-.758a3.063,3.063,0,0,1,2.019-1.1,1.817,1.817,0,0,1,1.636,1.59,10.09,10.09,0,0,0,.323,1.044c.406,1.184.962,2.8.6,3.825a8.2,8.2,0,0,0-.348,1.312,6.1,6.1,0,0,1-.5,1.59c-.374.811-.874,2.235-.016,2.664a1.228,1.228,0,0,0,.542.154,1.529,1.529,0,0,0,.669-.224,4.46,4.46,0,0,1,.753-.317c.664-.2,2.7-1.153,4.041-1.785.5-.236.914-.429,1.14-.529.122-.055.274-.118.446-.192a11.217,11.217,0,0,0,3.473-1.983,8.216,8.216,0,0,1,1.146-.967c.933-.7,1.48-1.157,1.2-1.636-.048-.082-.1-.172-.161-.267-.5-.817-1.18-1.938-.8-2.723a1.471,1.471,0,0,1,1.247-.714c2.2-.283,3.121-.374,5.341-.559a3.644,3.644,0,0,0,2.6-1.172,1.664,1.664,0,0,0,.443-1.174,5.093,5.093,0,0,0-.1-.57c-.186-.9-.44-2.127.971-4.323,1.706-2.654,2.3-2.969,4.89-3.544,2.815-.625,9.6-2.626,10.057-3.2a1.739,1.739,0,0,1,.689-.955c.152-.129.341-.289.575-.523a2.649,2.649,0,0,0,1.047-2.25,4.642,4.642,0,0,1,.172-1.171,1.629,1.629,0,0,0-.134-1.491c-.541-.849.1-3.83.23-4.418.148-.653.674-2.81,1.238-3.163a.765.765,0,0,1,.394-.15c.328,0,.345.345.352.475.013.253.028.29.217.29a2.769,2.769,0,0,0,1-.348,3.485,3.485,0,0,1,1.428-.45,1.287,1.287,0,0,1,.67.18c.943.566,2,1.568,3.353,5.046,1,2.565,1.674,2.789,2.458,3.048a4.858,4.858,0,0,1,.682.267c1.165.583,2.308,2.165,1.981,3.256a6.736,6.736,0,0,1-2.4,2.814,4.151,4.151,0,0,1-2.386.751c-.167.013-.311.024-.42.042l-.143.022-.02,0c0,.008,0,.018,0,.027a5.583,5.583,0,0,1-.2.989,2.174,2.174,0,0,0-.115.7c0,.362-.039.423-1.048,1.62a13.8,13.8,0,0,0-2.464,3.539,3.679,3.679,0,0,1-.427.8c-.421.677-.946,1.518-.612,2.186a1.115,1.115,0,0,1-.155,1.364c-.029.036-.065.082-.085.113a.751.751,0,0,0,.143.1,5.833,5.833,0,0,1,2.115,1.733l.134.169c.349.437.875,1.1,1.09,1.1.019,0,.078-.063.129-.251.073-.27.133-.586.192-.892.151-.793.227-1.192.549-1.192.255,0,.366.291.458.589.082.264.171.517.257.762.262.738.451,1.271.244,1.612a.549.549,0,0,1-.416.255c-.207.03-.452.041-.712.054a4.547,4.547,0,0,0-1.725.3,5.659,5.659,0,0,0-.93.6,10.7,10.7,0,0,1-1.006.689,1.507,1.507,0,0,0-.514.493c-.3.424-.6.725-1.976,1.023-.458.1-.807.166-1.086.218a3.639,3.639,0,0,0-2.17,1.042,16.6,16.6,0,0,1-2.231,1.285,11.681,11.681,0,0,0-1.446.815,4.98,4.98,0,0,0,3.579-1.084,14.754,14.754,0,0,0,1.252-1.1c.523-.5.681-.643.855-.643a.263.263,0,0,1,.219.113.445.445,0,0,1-.01.418l-.057.153c-.038.1-.082.212-.109.3a4.191,4.191,0,0,0,.6-.2,1.76,1.76,0,0,1,.555-.16.259.259,0,0,1,.259.182c.071.233-.058.328-1.255,1.116l-.458.3-.365.244a12.821,12.821,0,0,1-2.18,1.262,5.536,5.536,0,0,1-1.073.313c-.982.217-1.578.4-1.578,1.146,0,1.153-1.035,7.025-1.836,7.293a.549.549,0,0,1-.171.027c-.338,0-.631-.294-.89-.554-.024-.025-.051-.052-.078-.079a3.661,3.661,0,0,0,.884,2.379c.134.183.264.348.389.506a4.811,4.811,0,0,1,1.236,2.958,4.56,4.56,0,0,1-1.058,3.27c-.447.494-.931.676-1.32.5a5.364,5.364,0,0,1-2.139-1.748,2.242,2.242,0,0,0-.305-.337c-.313-.291-.372-.436-.577-2.006-.078-.6-.178-1.128-.267-1.594a6.2,6.2,0,0,1-.187-2.09c-.014.021-.028.042-.041.064-.909,1.4-.824,1.746-.657,2.44.045.186.1.4.135.65a5.483,5.483,0,0,0,.609,1.555c.319.621.594,1.157.392,1.562a1.943,1.943,0,0,0-.1.729,2.446,2.446,0,0,1-.488,1.646c-.1.119-.191.207-.258.273a4.092,4.092,0,0,1,.619.519c.676.677,1.284,1.59,1.119,2.106a.474.474,0,0,1-.27.3,2.686,2.686,0,0,0,1.044.166,1.413,1.413,0,0,1,.861.188,3.132,3.132,0,0,1,.83,2.9c-.146.341-.733.617-1.681,1.04a6.044,6.044,0,0,0-1.437.774.319.319,0,0,0,.038.023.749.749,0,0,0,.369.086,3.756,3.756,0,0,0,1.414-.476,3.383,3.383,0,0,1,1.291-.437.8.8,0,0,1,.36.079c.549.275.564,1.307.409,2.108-.167.867-.6,1.814-1.332,1.875-1.176.1-1.892.185-2.328.255.246.035.494.059.735.083.793.081,1.42.143,1.658.512a.633.633,0,0,1,.046.569,4.7,4.7,0,0,1-2.776,2.212h0a.471.471,0,0,1-.1-.009.421.421,0,0,0-.063,0,3.252,3.252,0,0,0-1.967.828.232.232,0,0,0-.032.243,1.025,1.025,0,0,1-.064,1.087,2.058,2.058,0,0,0-.287,1.148c0,1.53-.468,1.714-1.706,1.817-1.034.086-3.837,2.292-4.166,3.279a16.609,16.609,0,0,1-1.616,2.919c-.264.415-.493.774-.633,1.027-.284.511-1.274.881-2.538,1.314-.319.109-.7.239-.9.331a1.647,1.647,0,0,1,.043,1.215c-.15.45-.4.518-.531.518a1.853,1.853,0,0,1-.194-.012l-.051,0a2.331,2.331,0,0,0-.078.456,5.253,5.253,0,0,1-.742,1.83c-.192.351-.39.714-.58,1.126-.717,1.553-1.285,3.666-.837,4.636.229.5.555,1.542.932,2.751a34.032,34.032,0,0,0,1.756,4.859,18.225,18.225,0,0,1,1.231,2.938,14.575,14.575,0,0,0,.634,1.628,3.424,3.424,0,0,0,.981,1.1,4.451,4.451,0,0,1,1.346,1.607,33.38,33.38,0,0,1,1.788,6.87,3.816,3.816,0,0,1-.368,1.829,7.844,7.844,0,0,0-.471,1.577,4.97,4.97,0,0,0,0,1.554c.07.579.135,1.125-.509,1.411l-.056.025A11.079,11.079,0,0,1,3434.845,565.57Zm-.148-.489a.712.712,0,0,0,.148.015,11.225,11.225,0,0,0,2.921-.99l.056-.025c.3-.132.308-.281.23-.921a5.382,5.382,0,0,1,0-1.693,8.154,8.154,0,0,1,.5-1.667,3.4,3.4,0,0,0,.337-1.622,33.362,33.362,0,0,0-1.745-6.706,4,4,0,0,0-1.221-1.444,3.855,3.855,0,0,1-1.1-1.247,14.946,14.946,0,0,1-.657-1.683,17.859,17.859,0,0,0-1.2-2.865,33.433,33.433,0,0,1-1.794-4.947c-.372-1.194-.695-2.225-.911-2.694-.723-1.565.675-4.684.837-5.034.2-.428.408-.814.6-1.155a4.98,4.98,0,0,0,.687-1.655c.05-.453.1-.88.52-.88.038,0,.08,0,.126.008s.08.008.128.009a1.015,1.015,0,0,0,.168-.577.65.65,0,0,0-.106-.484.289.289,0,0,1-.12-.279c.04-.252.326-.36,1.312-.7.82-.28,2.059-.7,2.277-1.1.147-.265.379-.629.648-1.051a16.468,16.468,0,0,0,1.566-2.814c.392-1.177,3.342-3.5,4.575-3.6,1.027-.086,1.271-.106,1.271-1.345a2.525,2.525,0,0,1,.345-1.376.582.582,0,0,0,.046-.667.7.7,0,0,1,.067-.693,3.637,3.637,0,0,1,2.365-1.043.926.926,0,0,1,.156.013,4.555,4.555,0,0,0,2.332-1.888c.037-.112.013-.149,0-.161-.115-.178-.749-.242-1.307-.3-.378-.038-.806-.082-1.216-.164-.211-.042-.563-.112-.547-.4.015-.248.026-.444,3.364-.723.371-.031.743-.643.906-1.491.157-.816.044-1.5-.156-1.6a.334.334,0,0,0-.148-.029,3.191,3.191,0,0,0-1.086.39,4.039,4.039,0,0,1-1.619.523,1.232,1.232,0,0,1-.6-.143.479.479,0,0,1-.3-.441c.017-.419.638-.717,1.734-1.205a5.126,5.126,0,0,0,1.439-.794,2.785,2.785,0,0,0-.657-2.314.962.962,0,0,0-.585-.108,3.273,3.273,0,0,1-1.917-.536,5.378,5.378,0,0,0-1.782-.573c-.586-.113-.975-.188-1.079-.5a.645.645,0,0,1,.2-.594.8.8,0,0,1,.623-.274,3.789,3.789,0,0,1,1.805.886,3.263,3.263,0,0,0,.873.521.083.083,0,0,0,.032-.011c.079-.109-.164-.8-1-1.634a3.467,3.467,0,0,0-.63-.515c-.11-.072-.216-.14-.229-.285s.078-.234.185-.337c.07-.067.165-.158.291-.3a2.013,2.013,0,0,0,.371-1.35,2.212,2.212,0,0,1,.153-.924c.1-.191-.162-.692-.39-1.135a5.79,5.79,0,0,1-.656-1.7c-.036-.234-.083-.425-.127-.61-.2-.815-.255-1.31.72-2.81.932-1.434,1.167-1.434,1.28-1.434a.266.266,0,0,1,.237.143c.037.072.136.261-.379,1-.409.585-.265,1.342-.046,2.489.091.473.193,1.009.273,1.622.2,1.5.241,1.545.429,1.721a2.652,2.652,0,0,1,.362.4,4.828,4.828,0,0,0,1.952,1.6c.194.086.484-.066.775-.388a4.1,4.1,0,0,0,.938-2.9,4.368,4.368,0,0,0-1.136-2.711c-.129-.163-.263-.332-.4-.521a4.147,4.147,0,0,1-.975-2.744c0-.44.187-.532.343-.532.186,0,.337.151.545.362.155.155.413.414.554.414,0,0-.005.009-.005.01.432-.348,1.538-5.281,1.538-6.855,0-1.177,1.082-1.417,1.95-1.608a5.138,5.138,0,0,0,.979-.281,12.293,12.293,0,0,0,2.112-1.224l.365-.245c.154-.1.31-.205.461-.3l.1-.064a.413.413,0,0,1-.434-.147.488.488,0,0,1-.029-.432l-.107.1a14.826,14.826,0,0,1-1.295,1.14,5.326,5.326,0,0,1-4.012,1.156c-.249-.062-.386-.182-.406-.357-.044-.38.483-.665,1.784-1.33a16.338,16.338,0,0,0,2.163-1.242,4.077,4.077,0,0,1,2.367-1.129c.275-.052.619-.117,1.073-.215,1.3-.282,1.479-.539,1.69-.835a1.953,1.953,0,0,1,.656-.625,10.533,10.533,0,0,0,.966-.662,6.12,6.12,0,0,1,1-.648,4.887,4.887,0,0,1,1.915-.346c.249-.011.484-.022.668-.049.029,0,.066-.013.077-.032.09-.148-.117-.736-.285-1.209-.083-.236-.169-.479-.25-.737-.036.161-.071.349-.1.508-.06.315-.122.64-.2.928-.135.5-.394.6-.586.6-.445,0-.916-.592-1.461-1.278l-.133-.167a5.388,5.388,0,0,0-1.975-1.615.689.689,0,0,1-.389-.422.6.6,0,0,1,.19-.5.662.662,0,0,0,.1-.857c-.453-.905.175-1.913.633-2.649a3.525,3.525,0,0,0,.372-.684,13.811,13.811,0,0,1,2.558-3.714c.936-1.111.936-1.13.936-1.314a2.64,2.64,0,0,1,.133-.83,5.125,5.125,0,0,0,.188-.911c.035-.315.12-.4.427-.446l.132-.02c.131-.021.284-.033.462-.046a3.7,3.7,0,0,0,2.125-.648,6.456,6.456,0,0,0,2.246-2.58c.231-.772-.661-2.157-1.738-2.7a4.458,4.458,0,0,0-.619-.241c-.86-.285-1.672-.553-2.75-3.326-1.3-3.345-2.286-4.289-3.155-4.811a.809.809,0,0,0-.427-.113,3.174,3.174,0,0,0-1.224.4,3.024,3.024,0,0,1-1.2.394.645.645,0,0,1-.688-.7l-.022.014a7.317,7.317,0,0,0-1.028,2.866c-.438,1.931-.561,3.638-.293,4.059a2.075,2.075,0,0,1,.195,1.858,4.22,4.22,0,0,0-.158,1.059,3.1,3.1,0,0,1-1.185,2.585c-.248.248-.445.415-.6.55a1.262,1.262,0,0,0-.545.743c-.279.975-9.555,3.324-10.405,3.513-2.462.547-2.975.818-4.595,3.338-1.306,2.033-1.084,3.107-.905,3.97a5.394,5.394,0,0,1,.1.623,2.11,2.11,0,0,1-.552,1.522,4.192,4.192,0,0,1-2.919,1.34c-2.213.185-3.124.274-5.32.557-.47.061-.767.211-.881.449-.266.554.364,1.587.781,2.271.058.1.114.188.164.272.519.879-.416,1.578-1.321,2.256a7.893,7.893,0,0,0-1.078.906,11.49,11.49,0,0,1-3.638,2.1c-.17.072-.32.135-.439.188-.224.1-.634.292-1.131.525-1.438.675-3.407,1.6-4.105,1.81a4,4,0,0,0-.677.285,1.919,1.919,0,0,1-.882.275,1.688,1.688,0,0,1-.754-.2c-.637-.319-1.189-1.147-.2-3.287a5.612,5.612,0,0,0,.461-1.483,8.7,8.7,0,0,1,.367-1.38c.309-.864-.216-2.394-.6-3.511a10.629,10.629,0,0,1-.34-1.1c-.083-.418-.435-1.208-1.171-1.208a2.681,2.681,0,0,0-1.684.957,2.462,2.462,0,0,1-1.54.9.707.707,0,0,1-.69-.483,2.271,2.271,0,0,1,.888-2.248c.865-.755.428-1.975.077-2.956-.213-.594-.367-1.023-.235-1.329a2.215,2.215,0,0,0-.508-1.971,4.567,4.567,0,0,0-2.344-.489,2.779,2.779,0,0,1-1.247-.6,2.917,2.917,0,0,0-.984-.518c-.263,0-.533.407-.665.679a1.4,1.4,0,0,1,.165,1.046.8.8,0,0,1-.542.494c-.416.139-.424.412-.344,1a3.422,3.422,0,0,1,.042.447c0,.76-.685.988-1.185,1.154a.392.392,0,0,1-.434-.1c-.18-.2-.147-.569-.073-1.147.007-.059.016-.126.023-.194-.08.122-.167.258-.245.381a5.886,5.886,0,0,1-1.657,1.976c-.673.336-.643.424-.408,1.108l.063.186a4.241,4.241,0,0,1-.377,2.859c-.24.6-.037,1,.332,1.741.125.251.267.535.41.867.1.23.183.409.254.565.352.753.445.955.6,3.138a5.541,5.541,0,0,1-1.434,4.2c-.2.267-.394.518-.553.777a1.613,1.613,0,0,1-1.4.886,2.756,2.756,0,0,1-1.753-.834,5.565,5.565,0,0,1-1.185-4.423,3.751,3.751,0,0,0-.394-2.029,8,8,0,0,1-.449-1.5c-.189-1.229.273-3.572.811-4.11.4-.4.453-.836.343-1-.138-.2-.036-.567.772-2.769.216-.586.476-1.3.656-1.844-.245.462-.525,1.048-.73,1.475-.139.29-.27.564-.383.788a7.03,7.03,0,0,1-2.43,2.8.634.634,0,0,1-.278.094.256.256,0,0,1-.229-.151c-.07-.168.029-.266.266-.5.261-.261.872-.871.83-1.2a3,3,0,0,1,.539-1.669,8.06,8.06,0,0,0,.5-1.045c.132-.362.256-.837.376-1.3a6.452,6.452,0,0,1,.78-2.121,2.757,2.757,0,0,1,1.808-.831.674.674,0,0,1,.495.164.475.475,0,0,1,.123.208c.01-.09.021-.186.031-.287a1,1,0,0,1,1.089-.933c.051,0,.1,0,.131.006a8.06,8.06,0,0,0,1.65-1.051.959.959,0,0,1,.652-.229c.906,0,2.251,1.06,2.251,1.616a.422.422,0,0,0,.14.244.56.56,0,0,0,.176.125.932.932,0,0,0-.04-.311.839.839,0,0,1,.12-.754c.312-.4.987-.431,1.6-.431h.219a3.121,3.121,0,0,0,.314-.011,2.3,2.3,0,0,1,.364-.007c-.1-.164-.168-.265-.277-.28-.4-.057-.663-.388-.964-.771a4.779,4.779,0,0,0-.822-.873l-.166-.128a1.387,1.387,0,0,1-.813.627,1.3,1.3,0,0,1-.457.1.559.559,0,0,1-.436-.183c-.241-.274-.178-.76-.119-1.231a2.931,2.931,0,0,0,.041-.64c.009-.006,0-.012-.043-.012a3.491,3.491,0,0,0-.941.3,4.89,4.89,0,0,1-1.174.377c-.418.046-1.694.188-1.953.707a.835.835,0,0,1-.535.462c-.165.061-.306.112-.479.543a.791.791,0,0,1-.793.519,3.707,3.707,0,0,1-1.167-.3,3.352,3.352,0,0,0-.958-.259,2.442,2.442,0,0,1-1.478-.79,3.948,3.948,0,0,0-1.028-.715,2.532,2.532,0,0,1-.691-.355c-.031,0-.077,0-.151,0s-.13.156-.2.345c-.086.247-.2.585-.547.585a.378.378,0,0,1-.3-.152c-.344-.44-.024-1.9-.021-1.909.071-.284.491-.549,1.229-.993a7.279,7.279,0,0,0,1.158-.791c.115-.116.116-.169.116-.17a.937.937,0,0,0-.6-.169,2.434,2.434,0,0,0-1.351.565c-.085.338-.541.619-1.071.944a6.639,6.639,0,0,0-.592.392,1.677,1.677,0,0,0-.323.464,1.658,1.658,0,0,1-1.5,1.076c-1.018,0-2.4.685-2.558,1.483a1.15,1.15,0,0,1-1.322.95c-.1,0-.207,0-.309-.008s-.186-.007-.274-.007a.568.568,0,0,1-.506-.2c-.14-.217-.026-.468.132-.818a5.833,5.833,0,0,0,.241-.592c.011-.032.021-.062.03-.09a.577.577,0,0,1-.216-.318c-.016-.048-.131-.053-.179-.053a4.752,4.752,0,0,0-1.887.737,5.771,5.771,0,0,1-2.2.59l-.307.153-.024.012-.1.052v0a.209.209,0,0,1-.1.028.236.236,0,0,1-.23-.183.222.222,0,0,1,.126-.263l0,0,.085-.042.019-.01c.117-.058.241-.423.332-.691a3.108,3.108,0,0,1,.426-.919,1.245,1.245,0,0,1,.647-.367,1.593,1.593,0,0,0,1.176-1.149c.3-.8.322-.86.582-.926.105-.026.352-.088,1.141-.921a4.859,4.859,0,0,1,2.8-1.428,2.028,2.028,0,0,0,1.364-.64c.038-.055.072-.123.056-.155-.05-.1-.408-.276-1.405-.276a7.073,7.073,0,0,0-2.087.279,3.466,3.466,0,0,1-1.253.176c-.143,0-.286,0-.428-.007s-.265-.006-.393-.006a1.676,1.676,0,0,0-.931.17.692.692,0,0,1-.443.189c-.283,0-.471-.224-.688-.484a3.722,3.722,0,0,0-.737-.716,1.32,1.32,0,0,0-.422-.23,1.483,1.483,0,0,0-.054.215,1.993,1.993,0,0,1-.1.373.394.394,0,0,1-.373.288c-.225,0-.411-.192-.627-.413a1.749,1.749,0,0,0-.35-.309c-.123-.062-.238-.119-.238-.276a.248.248,0,0,1,.156-.23c.074-.037.094-.29-.04-.756-.038-.134-.07-.228-.1-.294-.026.041-.051.085-.072.123a2.815,2.815,0,0,1-.566.752.8.8,0,0,1-.533.2,2.043,2.043,0,0,1-1.146-.579,1.843,1.843,0,0,0-.474-.316,4.423,4.423,0,0,1-.6-.2,5.751,5.751,0,0,0-1.955-.451,2.406,2.406,0,0,1-1.833-.565l-.255-.182a4.039,4.039,0,0,1-.442-.356c-.023-.02-.047-.043-.067-.059-.05.037-.133.107-.218.181l-.1.086a.708.708,0,0,1-.464.19c-.5,0-.812-.606-.947-.939-.392.03-.928.046-1.6.046-4.608,0-14.839-.716-25.209-1.49-8.029-.6-24.249-3.667-33.94-5.5-3.206-.606-5.737-1.085-7.134-1.318-5.257-.876-21.3-5.292-23.666-5.948-.018.666-.066,2.312-.138,3.817-.06,1.26-.087,1.835-.933,1.835h0c-.095,0-.2-.006-.327-.012-.157-.008-.342-.017-.557-.017a.868.868,0,0,1-.674-.248,1.52,1.52,0,0,1-.17-1.181c.064-.625.076-1.018-.285-1.2-.446-.223-1.289-.745-2.181-1.3a23.14,23.14,0,0,0-3.117-1.77c-.224.121-.421,1.708-.035,3.931.241,1.384-.4,3.18-.914,4.622a8.149,8.149,0,0,0-.571,2.021c0,1.247-.287,1.935-1.421,4.108-.469.9-1.014,2.047-1.59,3.263-.776,1.636-1.578,3.328-2.227,4.463-.4.7-.954,1.484-1.491,2.244-.961,1.361-1.956,2.769-2.012,3.606-.059.887-.042,1.625-.022,2.481.011.489.023,1,.023,1.6,0,1.663-.71,3.292-2.374,5.446-1.062,1.374-.688,3.192-.416,4.52a5.659,5.659,0,0,1,.185,1.4,2.744,2.744,0,0,1-.379,1.186,7.039,7.039,0,0,0-.74,2.189c-.307,1.532.581,1.846,1.61,2.209a4.838,4.838,0,0,1,.985.427c.686.435.543,1.451.417,2.347-.069.5-.165,1.173.024,1.268.767.383.437,1.191.119,1.973-.1.235-.195.479-.279.731a6.139,6.139,0,0,0,.621,4.439,2.408,2.408,0,0,1,.546,1.337,4.059,4.059,0,0,0,.405,1.4c.372.838.645,1.336.99,1.966s.731,1.336,1.332,2.584c.711,1.478.786,1.632.455,1.886-.074.056-.213.163-.246.833a3.227,3.227,0,0,1-.365,1.662,2.3,2.3,0,0,0-.288.961.679.679,0,0,0,.121.541c.353.438,1.391.524,2.4.606.272.022.544.045.808.074,1.754.195,2.478,1.161,3.077,2.658.2.5.367.5.5.5.058-.006.134-.007.205-.014a2.737,2.737,0,0,1,.283-.018,1.478,1.478,0,0,1,1.208.678c.617.786.526,1.133.16,1.468-.136.125-.187.171-.121.369s.351.232.813.265c.615.043,1.458.1,1.524,1.1a2.977,2.977,0,0,0,.7,1.56,4.1,4.1,0,0,1,.878,1.961,8.568,8.568,0,0,1,.042,2.05l10.719,1.09a.237.237,0,0,1,.163.382l-.852,1.085,15.251,8.584,12.293,1.912.416-1.829a.239.239,0,0,1,.266-.182c2.3.341,7.688,1.206,8.075,1.884.267.467,1.7,2.565,2.561,3.817.328.479.584.854.685,1,.028.042.066.053.242.073.77.091,1.589.459,2.4,3.815.913,3.806,2.1,4.182,3.054,4.483a4.762,4.762,0,0,1,.533.192,7.018,7.018,0,0,1,1.494,1.186c.587.546,1.317,1.226,1.676,1.225a.125.125,0,0,0,.1-.037,8.97,8.97,0,0,0,1.1-2.276,7.1,7.1,0,0,1,.646-1.425c.467-.583,1.55-.827,2.914-.644a16.4,16.4,0,0,1,5.5,2.46c1.158.827,2.45,3.858,3.144,5.486.116.273.212.5.282.652a8.642,8.642,0,0,0,.926,1.316c.87,1.11,1.952,2.491,1.885,3.633-.064,1.1,1.085,2.866,1.925,4.159.307.473.573.881.744,1.2.5.937,2.407,1.269,3.883,1.269a3.608,3.608,0,0,1,2.586,1l.114.114a3.541,3.541,0,0,0,.461.421,1.723,1.723,0,0,0,.043-.461c0-1.224,0-4.475.281-7.277.284-2.838.962-3.649,2.688-5.086a8.078,8.078,0,0,1,3.391-1.506,12.831,12.831,0,0,0,2.056-.667,6.144,6.144,0,0,0,3.343-2.616,3.472,3.472,0,0,1,2.033-1.655c.367-.154.823-.345,1.456-.654a5.038,5.038,0,0,1,2.165-.655,4.526,4.526,0,0,1,.6.05,4.962,4.962,0,0,0,.681.056,4.318,4.318,0,0,0,.489-.03,3.322,3.322,0,0,1,.4-.025,4.478,4.478,0,0,1,2.017.589,7.371,7.371,0,0,0,1.75.647,6.55,6.55,0,0,1,1.569.559l-.063-.128a.948.948,0,0,1-.094-.929.779.779,0,0,1,.716-.3,5.824,5.824,0,0,1,1.2.193l.206.048c.5.11.583.418.675.744a3.611,3.611,0,0,0,1.292,1.915,2.282,2.282,0,0,0,1.361.759,2.069,2.069,0,0,0,.985-.4,6.928,6.928,0,0,1,1.419-.685,3.337,3.337,0,0,0,1.218-.555.263.263,0,0,1,.185-.086.247.247,0,0,1,.237.212.435.435,0,0,0,.091.115,3.457,3.457,0,0,1,.256.3,1.385,1.385,0,0,0,1.227.689,3.216,3.216,0,0,0,.8-.118,3.533,3.533,0,0,0,.57-.188c-.1-.056-.238-.123-.352-.177a4.5,4.5,0,0,1-.764-.426c-.86-.645-.932-1.828-.932-2.887a.977.977,0,0,0-1.089-1.1,2.749,2.749,0,0,0-.748.117,1.4,1.4,0,0,1-1.651-.379,1.3,1.3,0,0,1-.026-1.248.717.717,0,0,1,.736-.388,6.255,6.255,0,0,1,1.587.347,6.2,6.2,0,0,0,1.467.331.592.592,0,0,0,.236-.038,4.631,4.631,0,0,1,1.523-.307,11.715,11.715,0,0,0,1.774-.264,5.7,5.7,0,0,1,1.321-.158c.278,0,.517.021.708.038.136.012.254.022.35.022a.36.36,0,0,0,.229-.047,7,7,0,0,0,.025-1.908,9.4,9.4,0,0,1-.026-1.372c.033-.261.183-.3.268-.3.251,0,.281.135.564,1.421a15.383,15.383,0,0,0,.91,3.159c.074.128.148.192.218.192.235,0,.636-.462.957-.832a3.57,3.57,0,0,1,1.034-.945,1,1,0,0,1,.4-.1.811.811,0,0,1,.58.294.81.81,0,0,0,.656.293,1.9,1.9,0,0,0,.367-.04c.529-.106.548-.212.556-.257.045-.244.193-.348.5-.348a4.079,4.079,0,0,1,.514.044c.3.04.494.066.627.092h.016v0l.054.012v0c.018,0,.1.02.516.083l.279.044a3.165,3.165,0,0,0,1.927-.031.522.522,0,0,1,.612.1c.242.271.18.809.12,1.331-.02.178-.039.345-.039.46a.918.918,0,0,0,.307.59.971.971,0,0,0,.887.3,7.637,7.637,0,0,1,.806-.131c.537-.069,1.349-.176,1.513-.392a.058.058,0,0,0,.014-.051c-.076-.532.445-.679.826-.786.33-.093.67-.189.767-.447a.987.987,0,0,1,1.013-.544,3.031,3.031,0,0,1,2.283,1.14,2.433,2.433,0,0,0,.74.709,2.471,2.471,0,0,1,.951,1.085,2.862,2.862,0,0,0,.536.763c.222.227.311.369.42,1.079.03.2.073.2.1.2a1.253,1.253,0,0,0,.305-.073,2.025,2.025,0,0,1,.609-.12c.542,0,.939.381,1.211,1.163a4.076,4.076,0,0,1-.272,3.655c-.128.275-.261.559-.38.877a.768.768,0,0,0-.049.629.357.357,0,0,0,.3.108,1.847,1.847,0,0,0,1.213-.606c.264-.3.456-.423.644-.423.491,0,.524.628.594,2l.013.237c.057,1.092-.122,1.382-.422,1.732a1.835,1.835,0,0,0-.425.768.306.306,0,0,0,.013.287c.183.275.971.351,1.547.406a3.413,3.413,0,0,1,1.213.241.546.546,0,0,1,.317.428c.024.321-.29.568-.655.854a3.713,3.713,0,0,0-.528.47c-.081.1-.062.137-.054.155a1.571,1.571,0,0,0,1.173.386.974.974,0,0,0,.582-.252.589.589,0,0,1,.342-.161c.337,0,.337.407.337.65a2.62,2.62,0,0,0,2.521,2.284c.316.012.674.026.818.534a8.75,8.75,0,0,1-.371,3.288.227.227,0,0,0-.01.07Zm10.278-65.5a3.271,3.271,0,0,0,.705.18c.285.055.624.12.974.224a3,3,0,0,0-1.317-.647.332.332,0,0,0-.269.115A.658.658,0,0,0,3444.975,499.583Zm-46.166-31.336a1.4,1.4,0,0,1-.431,1.554,6.794,6.794,0,0,0-.677,3.7,7.748,7.748,0,0,0,.425,1.407,4.074,4.074,0,0,1,.406,2.318,5.173,5.173,0,0,0,1.046,3.946,2.317,2.317,0,0,0,1.436.712,1.158,1.158,0,0,0,.993-.66c.171-.278.369-.539.58-.816a5.146,5.146,0,0,0,1.339-3.879c-.15-2.1-.229-2.264-.558-2.972-.074-.159-.16-.343-.261-.578-.136-.319-.276-.6-.4-.842a2.345,2.345,0,0,1-.348-2.129,3.846,3.846,0,0,0,.367-2.533l-.062-.182c-.262-.765-.352-1.187.645-1.686a5.85,5.85,0,0,0,1.469-1.806c.463-.728.606-.937.832-.937a.28.28,0,0,1,.235.127c.116.175.087.456.025.937a4.113,4.113,0,0,0-.051.717c.565-.193.8-.338.8-.685a2.957,2.957,0,0,0-.038-.383c-.067-.493-.168-1.239.664-1.516.175-.058.224-.144.245-.2a1.094,1.094,0,0,0-.183-.747.235.235,0,0,1-.021-.215,2.729,2.729,0,0,1,.2-.383,1,1,0,0,1-.4-.252.865.865,0,0,1-.278-.579,2.575,2.575,0,0,0-1.777-1.142.49.49,0,0,0-.34.112,8.535,8.535,0,0,1-1.825,1.153.236.236,0,0,1-.139.018.924.924,0,0,0-.129-.008c-.563,0-.6.383-.617.509-.2,1.887-.353,2.223-.678,2.223h0a.373.373,0,0,1-.327-.248,1.716,1.716,0,0,1-.01-1.138,1.226,1.226,0,0,0,.055-.474.342.342,0,0,0-.159-.025,2.272,2.272,0,0,0-1.443.661,6.66,6.66,0,0,0-.686,1.937c-.123.471-.25.957-.389,1.34a8.27,8.27,0,0,1-.525,1.107,2.676,2.676,0,0,0-.485,1.386.8.8,0,0,1-.016.27,8.024,8.024,0,0,0,.964-1.462c.111-.223.241-.493.379-.782.98-2.044,1.24-2.458,1.546-2.458a.3.3,0,0,1,.266.171c.124.247-.073.867-.865,3.025A20.668,20.668,0,0,0,3398.809,468.247Zm12.746-9.6a1.521,1.521,0,0,0,.6-.077c.023-.01.042-.02.058-.029l-.027-.017A1.471,1.471,0,0,0,3411.555,458.643Z" transform="translate(-24.064)" stroke="#fff" stroke-width="0.1" fill="url(#a)"/><path d="M3285.291,1275.866l-1.116,19.947a10.906,10.906,0,0,1,3.208,1.4,8.224,8.224,0,0,1,1.255,1.813s.7-1.394,1.4-1.116,2.231,2.092,3.208,3.488,1.953.139,2.51,1.952,2.511,5.3,1.255,4.6-.7-1.186-1.255-.7-.419,1.089-1.395.789-1.116.119-1.325-1.207.628-1.534-.348-1.673.07.279-.977-.14-1.953.069-1.883-1.046.279-.558-.14-1.534.418-1.186-.419-1.535-.139.558-1.186-.837.977-.488-1.395-1.6-2.371-1.465-3.068-1.674a7.673,7.673,0,0,0-2.372-.7c-.7.07-1.395.349-1.6-.279s-1.395-.906-1.116-1.4,1.4-.279.279-.488-1.6-.767-1.953-.419-.489-.906-.349.349.8,1.952-.053,1.813-1.272-.837-2.178-.139-.419,1.046-1.465.976-2.022-.139-1.046-.418.628-.628.209-.7.07-.837.488-1.116.976-.977,1.6-.977,1.6.279,1.116.14.348-.279-.628-.767-1.813-.628-2.441.279a5.774,5.774,0,0,1-1.884,1.814c-.767.488-1.534.7-1.116,1.255s1.534.558.7.977-1.186,1.116-2.232,1.465-1.255.069-2.022.557-.767.977-1.744,1.326-1.046.348-1.883.7-1.255,1.4-2.65.837-1.186.07-1.883-.349-2.162,1.046-4.045,1.116-2.162.906-3.976.837-5.3,0-5.719,0a15.628,15.628,0,0,1-3.975-.837,23.5,23.5,0,0,0-3.906-2.093c-.767-.139-3.139-2.371-4.045-3.347l-.209-.223-.271-.288c-.759-.8-1.473-1.511-1.473-1.511a.863.863,0,0,1,.767.139,8.74,8.74,0,0,0,.907.7c.628.488,1.506,1.115,1.562,1.813s2.623,1.883,3.18,2.162a37.009,37.009,0,0,1,3.7,1.465,2.843,2.843,0,0,0,1.883,1.186c1.116.139,4.952.418,5.928-.14a8.977,8.977,0,0,1,3.348-.837c.557,0,2.6-1.172,4.044-.628s2.511-.907,2.859-.628,3.278-.279,4.046-.976a30.892,30.892,0,0,0,3.138-2.79c.558-.768,1.255-.768.558-.768s-.906.489-1.744.489-.558-1.046-1.394-1.6-1.046.069-2.023.14-.836-.419-.209-1.4,1.046-1.293.418-1.517-1.6-.226-1.674-.644.558-.628.418-1.046-1.186.837-1.395-.489.279-.7.558-1.254-.977-1.186-.558-2.092,1.883-2.092,2.72-1.325,1.534,1.673,1.534.767.343-1.465,1.253-1.325,1.816.28,2.025-.419-.558-1.045-.07-1.882.279-.768-.7-.28-.837.28-1.743-.139-1.953-.418-1.884-1.744.489-.766.489-1.185-1.325-.14-1.046-.977,1.459-.767,2.927-.767,2.165-.489,1.885.209a1.7,1.7,0,0,0,.767,1.814c.419.208.907.487.627-.21s-.279-.628-.209-1.116.209-.07-.349-.767-.14-.209-.558-1.255a18.946,18.946,0,0,0-.628-1.883c-.279-.418-.558-1.743.628-1.534s1.185.653,1.743-.022a4.2,4.2,0,0,1,2.3-1.652c.837-.07,1.674-.209,2.86-.349s1.674-.837,2.3-.557.906.279,1.115.906-.836.837-.069,1.046,1.4-.279,1.6.279,0,.627.837.7a1.691,1.691,0,0,1,1.534.768,2.638,2.638,0,0,0,2.092.767c.558-.07.558.558,1.185.069s.349-1.465.628-.488A5.207,5.207,0,0,0,3285.291,1275.866Z" transform="translate(-1.763 -739.512)" stroke="#fff" stroke-width="0.1" fill="url(#a)"/><path d="M3293.035,1306.592a1.768,1.768,0,0,1-.51-.091,3.619,3.619,0,0,0-.563-.122c-.593-.092-.761-.229-.927-1.275a2.716,2.716,0,0,1,.091-1.281c.013-.046.029-.1.037-.137a1.585,1.585,0,0,0-.276-.057,2.505,2.505,0,0,0-.252-.026.257.257,0,0,1-.183.081h0c-.073,0-.094-.008-.595-.208a3.359,3.359,0,0,0-.931-.2c-.544-.059-1.161-.126-1.1-1.085a4.351,4.351,0,0,1,.1-.723c.029-.133.029-.133-.154-.559l-.062-.143a1.538,1.538,0,0,1-.078-1.1c.051-.2.051-.2-.213-.311a.693.693,0,0,0-.242-.069.366.366,0,0,1-.187.062c-.176,0-.209-.044-.767-.789l-.088-.118c-.352-.469-.452-.8-.312-1.05-.2-.111-.6-.3-.994-.481a15.987,15.987,0,0,1-2.353-1.3,2.283,2.283,0,0,0-.683-.361c-.229-.068-.479-.17-.743-.278a3.85,3.85,0,0,0-1.536-.411c-.135.014-.271.036-.4.056a3.912,3.912,0,0,1-.6.067.8.8,0,0,1-.844-.563c-.071-.212-.338-.4-.574-.574-.33-.237-.781-.561-.523-1.014a.736.736,0,0,1,.167-.2,6.12,6.12,0,0,1-.879-.307,1.7,1.7,0,0,0-.489-.159.124.124,0,0,0-.1.043.412.412,0,0,1-.283.133c0,.007,0,.015,0,.022a5.665,5.665,0,0,0,.245,1.07c.116.378.2.651.05.853-.113.153-.3.2-.623.149a3.079,3.079,0,0,1-.77-.256,1.582,1.582,0,0,0-.614-.185,1.012,1.012,0,0,0-.613.257,2.044,2.044,0,0,0-.546.6.8.8,0,0,1-.83.437c-.073,0-.155,0-.249-.009-1.269-.084-1.636-.122-1.668-.431-.03-.28.319-.379.573-.451a1.436,1.436,0,0,0,.421-.175.6.6,0,0,0-.186-.062.4.4,0,0,1-.348-.318c-.084-.392.384-.99.743-1.228a4.122,4.122,0,0,0,.361-.293,2.283,2.283,0,0,1,1.374-.724,4.851,4.851,0,0,1,.752.077.05.05,0,0,0,0-.007h0a1.091,1.091,0,0,0-.372-.248,2.751,2.751,0,0,0-1.183-.359,1.115,1.115,0,0,0-.957.561,5.976,5.976,0,0,1-1.95,1.879c-.172.109-.345.206-.5.292-.281.157-.6.333-.625.457-.01.048.039.124.07.164a1.578,1.578,0,0,0,.575.391c.242.118.472.229.473.468s-.208.36-.435.473a4.147,4.147,0,0,0-.844.6,4.007,4.007,0,0,1-1.418.874,4.7,4.7,0,0,1-1.045.223,1.793,1.793,0,0,0-.925.309,3,3,0,0,0-.63.552,2.586,2.586,0,0,1-1.161.8c-.287.1-.5.175-.669.235-.411.143-.617.215-1.2.457a2.811,2.811,0,0,0-.627.411,2.157,2.157,0,0,1-1.372.606,2.235,2.235,0,0,1-.831-.178,2.583,2.583,0,0,0-.9-.23,1.236,1.236,0,0,0-.235.026,1.1,1.1,0,0,1-.224.026,1.072,1.072,0,0,1-.56-.188c-.222-.133-.723.09-1.311.366a6.739,6.739,0,0,1-2.6.784,5.057,5.057,0,0,0-1.875.43,4.587,4.587,0,0,1-2.119.407c-.532-.02-1.267-.031-2.187-.031-1.128,0-2.271.016-2.954.025l-.569.006a15.589,15.589,0,0,1-4.1-.871l-.328-.2a20.677,20.677,0,0,0-3.5-1.864c-.907-.165-3.415-2.6-4.177-3.419l-.478-.508c-.748-.787-1.461-1.5-1.468-1.508a.237.237,0,0,1,.1-.4,1.366,1.366,0,0,1,.344-.043.9.9,0,0,1,.656.244,1.768,1.768,0,0,0,.328.269c.115.079.271.187.556.408l.137.106c.649.5,1.456,1.124,1.516,1.876.015.187.406.679,2.853,1.873l.2.1c.2.1.738.288,1.311.488a10.146,10.146,0,0,1,2.447,1.021c.062.062.125.133.194.211a2.285,2.285,0,0,0,1.551.907,31.015,31.015,0,0,0,3.328.192,5.7,5.7,0,0,0,2.453-.3,9.207,9.207,0,0,1,3.466-.868,3.789,3.789,0,0,0,.775-.228,7.6,7.6,0,0,1,2.4-.544,2.664,2.664,0,0,1,.949.16,1.648,1.648,0,0,0,.58.107,2.82,2.82,0,0,0,1.408-.5,1.514,1.514,0,0,1,.678-.282.411.411,0,0,1,.258.087,1.026,1.026,0,0,0,.265.022,7.565,7.565,0,0,0,3.473-.988c.254-.231.623-.531,1.012-.849a14.874,14.874,0,0,0,2.094-1.905,2.536,2.536,0,0,1,.217-.26c-.047.022-.1.046-.147.072a2.15,2.15,0,0,1-1.064.286c-.61,0-.791-.436-.95-.82a1.629,1.629,0,0,0-.576-.824.873.873,0,0,0-.495-.189,1.266,1.266,0,0,0-.456.128,2.805,2.805,0,0,1-.923.24c-.068,0-.135.008-.19.007-.136,0-.543,0-.707-.3-.18-.33.037-.787.472-1.464.129-.2.249-.373.353-.523a2.194,2.194,0,0,0,.339-.573,1.219,1.219,0,0,0-.154-.071,4.942,4.942,0,0,0-.656-.163c-.564-.115-1.1-.223-1.171-.665a.859.859,0,0,1,.272-.7.962.962,0,0,0,.15-.21l-.113.045a1.523,1.523,0,0,1-.565.151c-.269,0-.612-.144-.72-.827-.125-.794-.039-1.08.369-1.226a.293.293,0,0,0,.212-.172c.057-.114-.052-.289-.239-.563a1.481,1.481,0,0,1-.323-1.522,3.033,3.033,0,0,1,2.293-1.71,1.151,1.151,0,0,1,.8.309c.167.153.328.311.48.459a5.849,5.849,0,0,0,.653.588c0-.027,0-.062,0-.106,0-1.378.769-1.583,1.228-1.583a2.013,2.013,0,0,1,.3.024,7.361,7.361,0,0,0,1.029.111c.55,0,.679-.184.733-.364a.891.891,0,0,0-.091-.626,1.316,1.316,0,0,1,.043-1.308c.042-.072.076-.133.1-.184-.163.073-.359.171-.491.236a2.127,2.127,0,0,1-.891.308,1.221,1.221,0,0,1-.606-.213c-.116-.064-.261-.144-.451-.231s-.379-.153-.568-.219c-.711-.25-1.516-.532-1.452-1.752.041-.771.2-1.031.449-1.159a2.3,2.3,0,0,0-.238-.069,1.066,1.066,0,0,1-.736-.421.7.7,0,0,1-.021-.575c.31-.93,1.5-.93,2.541-.93l.611,0a7.922,7.922,0,0,0,1.262-.113,3.568,3.568,0,0,1,.479-.054.441.441,0,0,1,.381.166.567.567,0,0,1-.016.535,1.489,1.489,0,0,0,.653,1.514l.07.035c.073.036.172.086.258.123-.007-.02-.016-.044-.026-.069l-.072-.18a1.386,1.386,0,0,1-.157-1.021l.005-.036a1.518,1.518,0,0,1,.041-.2,4.75,4.75,0,0,1-.34-.388c-.316-.4-.358-.454-.387-.653a2.73,2.73,0,0,0-.206-.663,7.967,7.967,0,0,1-.372-1.192,1.9,1.9,0,0,0-.232-.647,1.711,1.711,0,0,1-.167-1.514.794.794,0,0,1,.758-.411,1.559,1.559,0,0,1,.276.026,4.826,4.826,0,0,1,.9.249,1.131,1.131,0,0,0,.294.085c.05,0,.128-.033.327-.274a4.335,4.335,0,0,1,2.465-1.737c.5-.042.993-.107,1.569-.184.386-.052.807-.107,1.283-.164a3.793,3.793,0,0,0,1.2-.375,2.031,2.031,0,0,1,.83-.25.967.967,0,0,1,.4.086c.106.047.2.086.289.121a1.316,1.316,0,0,1,.956.927.864.864,0,0,1-.266.883l.034.009a2.181,2.181,0,0,0,.776.019,2.778,2.778,0,0,1,.331-.027.638.638,0,0,1,.656.432,3.228,3.228,0,0,1,.1.323.741.741,0,0,0,.045.143,1.589,1.589,0,0,0,.49.079,1.9,1.9,0,0,1,1.692.847,2.392,2.392,0,0,0,1.694.7,1.5,1.5,0,0,0,.191-.011.877.877,0,0,1,.647.179.344.344,0,0,0,.157.077c.033,0,.111-.017.265-.138a1.125,1.125,0,0,0,.36-.661c.024-.1.07-.294.271-.294s.234.113.37.59a5,5,0,0,0,1.323,1.84.238.238,0,0,1,.081.192l-1.105,19.757a9.871,9.871,0,0,1,3.128,1.4,7.527,7.527,0,0,1,1.1,1.5c.251-.381.689-.907,1.2-.907a.752.752,0,0,1,.278.054c.824.33,2.47,2.366,3.314,3.572a1.511,1.511,0,0,0,1.149.7c.516.1,1.05.2,1.395,1.318.177.575.5,1.333.816,2.065.732,1.708,1.008,2.437.788,2.771a.363.363,0,0,1-.313.164h0a.788.788,0,0,1-.377-.12,2.428,2.428,0,0,1-.919-.783l-.065.057a1.832,1.832,0,0,0-.331.409A.876.876,0,0,1,3293.035,1306.592Zm-2.438-3.464a2.723,2.723,0,0,1,.357.031c.316.046.52.1.625.269a.605.605,0,0,1,0,.528,2.226,2.226,0,0,0-.078,1.075c.129.818.159.823.531.881a4.043,4.043,0,0,1,.63.137,1.338,1.338,0,0,0,.371.07c.177,0,.232-.073.382-.3a2.264,2.264,0,0,1,.416-.507c.207-.181.292-.256.427-.256a.349.349,0,0,1,.3.218,1.813,1.813,0,0,0,.8.706c.024.014.045.024.063.033a12.618,12.618,0,0,0-.827-2.246c-.319-.744-.648-1.514-.833-2.114-.261-.847-.567-.9-1.029-.992a1.971,1.971,0,0,1-1.449-.894,13.482,13.482,0,0,0-3.1-3.4c-.382-.155-.911.636-1.094,1a.237.237,0,0,1-.212.13h0a.236.236,0,0,1-.212-.13,8.026,8.026,0,0,0-1.211-1.752,10.167,10.167,0,0,0-3.1-1.334.238.238,0,0,1-.173-.242l1.11-19.833a5.6,5.6,0,0,1-1.3-1.763,1.294,1.294,0,0,1-.331.385.914.914,0,0,1-.556.238.731.731,0,0,1-.418-.156.422.422,0,0,0-.327-.1,2.068,2.068,0,0,1-.25.015,2.856,2.856,0,0,1-2.049-.86,1.47,1.47,0,0,0-1.376-.689c-.656-.054-.835-.118-.954-.573a2.657,2.657,0,0,0-.085-.276c-.036-.1-.069-.126-.212-.126a2.649,2.649,0,0,0-.276.023,4.015,4.015,0,0,1-.453.033,1.874,1.874,0,0,1-.5-.064c-.19-.052-.391-.13-.447-.319a.486.486,0,0,1,.181-.459c.142-.158.225-.266.173-.421-.139-.416-.276-.472-.685-.638-.091-.037-.191-.078-.3-.127-.241-.108-.482,0-.839.163a4.275,4.275,0,0,1-1.339.414c-.474.055-.891.111-1.275.162-.582.078-1.084.146-1.592.187a3.858,3.858,0,0,0-2.138,1.567c-.228.275-.423.446-.692.446a1.331,1.331,0,0,1-.457-.114,4.458,4.458,0,0,0-.818-.228,1.156,1.156,0,0,0-.194-.019c-.227,0-.3.093-.34.161a1.266,1.266,0,0,0,.144,1.027,2.3,2.3,0,0,1,.3.8,7.534,7.534,0,0,0,.352,1.129,3.115,3.115,0,0,1,.235.77c.011.072.012.08.288.425a4.141,4.141,0,0,0,.337.381.316.316,0,0,1,.106.38.856.856,0,0,0-.044.188l-.005.037a1.021,1.021,0,0,0,.127.776l.073.182a.687.687,0,0,1,.037.623.339.339,0,0,1-.294.147,1.621,1.621,0,0,1-.628-.226l-.069-.035a1.922,1.922,0,0,1-.881-2.113c.007-.018.013-.033.018-.048-.089.006-.212.025-.35.046a8.51,8.51,0,0,1-1.334.118l-.611,0c-1.28,0-1.919.091-2.091.606a.287.287,0,0,0-.013.2c.049.09.273.147.437.189.268.068.635.161.635.515a.405.405,0,0,1-.273.424c-.054.023-.179.077-.216.774-.046.865.425,1.029,1.136,1.279.2.069.406.142.61.236s.358.179.481.247a.866.866,0,0,0,.378.154,1.866,1.866,0,0,0,.679-.258,2.85,2.85,0,0,1,.973-.384.31.31,0,0,1,.279.151c.105.183.01.408-.244.844a.854.854,0,0,0-.012.9,1.324,1.324,0,0,1,.1.936,1.112,1.112,0,0,1-1.187.7,7.58,7.58,0,0,1-1.1-.117,1.612,1.612,0,0,0-.23-.018c-.206,0-.753,0-.753,1.109,0,.537-.255.616-.407.616-.269,0-.548-.259-1.056-.759-.148-.146-.305-.3-.468-.448a.679.679,0,0,0-.482-.185,2.591,2.591,0,0,0-1.863,1.434c-.164.356.006.65.284,1.057.215.314.457.669.271,1.042a.762.762,0,0,1-.477.407.426.426,0,0,0-.079.033s-.071.091.02.671c.067.425.2.427.251.427h0a1.178,1.178,0,0,0,.384-.114,1.089,1.089,0,0,1,.4-.114.355.355,0,0,1,.35.252.771.771,0,0,1-.241.769c-.114.136-.183.224-.168.314.02.12.526.222.8.278a5.444,5.444,0,0,1,.722.181.662.662,0,0,1,.446.377c.089.278-.1.543-.4.984-.1.146-.218.314-.343.509-.5.772-.474.946-.455.98,0,0,.046.055.294.055.047,0,.1,0,.154-.005a2.364,2.364,0,0,0,.779-.207,1.635,1.635,0,0,1,.635-.163,1.356,1.356,0,0,1,.758.268,2.066,2.066,0,0,1,.751,1.037c.165.4.241.528.512.528a1.7,1.7,0,0,0,.851-.236,1.833,1.833,0,0,1,.893-.253c.311,0,.467,0,.52.193s-.1.281-.205.343a2.222,2.222,0,0,0-.682.608,14.66,14.66,0,0,1-2.178,1.994c-.385.314-.748.61-.993.832a7.8,7.8,0,0,1-3.792,1.111.968.968,0,0,1-.537-.107,2.087,2.087,0,0,0-.422.215,3.25,3.25,0,0,1-1.649.57,2.1,2.1,0,0,1-.748-.139,2.22,2.22,0,0,0-.781-.129,7.2,7.2,0,0,0-2.248.519,3.488,3.488,0,0,1-.932.254,8.717,8.717,0,0,0-3.23.805,6.282,6.282,0,0,1-2.688.365,31.5,31.5,0,0,1-3.387-.2,2.762,2.762,0,0,1-1.847-1.064c-.062-.07-.118-.134-.174-.189a13.99,13.99,0,0,0-2.269-.91c-.613-.214-1.142-.4-1.366-.511l-.193-.094c-.694-.339-1.258-.636-1.706-.9a5.6,5.6,0,0,0,1.628,1.107,17.991,17.991,0,0,1,3.66,1.926l.325.2a15.774,15.774,0,0,0,3.854.8l.562-.006c.684-.009,1.83-.025,2.961-.025.926,0,1.667.011,2.2.031a4.172,4.172,0,0,0,1.927-.374,5.53,5.53,0,0,1,2.031-.463,6.347,6.347,0,0,0,2.42-.74,3.6,3.6,0,0,1,1.338-.452.8.8,0,0,1,.418.109.624.624,0,0,0,.316.12.8.8,0,0,0,.139-.018,1.668,1.668,0,0,1,.32-.034,2.994,2.994,0,0,1,1.074.263,1.759,1.759,0,0,0,.655.144,1.709,1.709,0,0,0,1.079-.5,3.176,3.176,0,0,1,.737-.476c.6-.25.809-.323,1.23-.468.172-.059.38-.132.665-.234a2.131,2.131,0,0,0,.973-.673,3.468,3.468,0,0,1,.723-.63,2.247,2.247,0,0,1,1.125-.38,4.143,4.143,0,0,0,.949-.2,3.568,3.568,0,0,0,1.261-.785,4.562,4.562,0,0,1,.94-.667l.072-.038-.106-.052a1.972,1.972,0,0,1-.748-.533.668.668,0,0,1-.154-.547c.071-.334.418-.528.858-.773.155-.086.314-.175.474-.277a5.558,5.558,0,0,0,1.816-1.748,1.591,1.591,0,0,1,1.347-.766,3.18,3.18,0,0,1,1.4.409c.489.245.678.472.624.762.15.045.291.1.264.289a.237.237,0,0,1-.235.2.482.482,0,0,1-.115-.019,6.233,6.233,0,0,0-1.133-.16,1.936,1.936,0,0,0-1.063.608,4.37,4.37,0,0,1-.409.329,1.494,1.494,0,0,0-.539.693c.34.069.562.26.575.493.016.286-.262.459-.507.559.239.022.5.04.7.053.083.005.154.008.218.008.292,0,.31-.029.43-.218a2.526,2.526,0,0,1,.657-.718,1.471,1.471,0,0,1,.9-.355,1.973,1.973,0,0,1,.806.226,2.67,2.67,0,0,0,.654.222.97.97,0,0,0,.152.014,3.2,3.2,0,0,0-.109-.41,6.114,6.114,0,0,1-.263-1.157c-.073-.662-.073-.662.01-.755a.241.241,0,0,1,.179-.081.281.281,0,0,1,.247.183c.007.014.021.039.035.062a.592.592,0,0,1,.381-.133,1.857,1.857,0,0,1,.672.2,5.087,5.087,0,0,0,1.058.34c.575.107.678.127.679.34s-.2.245-.293.265c-.135.027-.417.084-.5.233-.043.076.142.217.388.394a1.824,1.824,0,0,1,.747.809c.052.156.13.239.394.239a3.549,3.549,0,0,0,.53-.06c.141-.023.286-.046.432-.06a4.092,4.092,0,0,1,1.761.443c.254.1.493.2.7.263a2.716,2.716,0,0,1,.811.42,15.378,15.378,0,0,0,2.291,1.266c1.189.559,1.313.619,1.348.824a.315.315,0,0,1-.113.282c-.09.087.117.395.249.57l.088.118c.2.268.345.46.426.558a.9.9,0,0,1,.573.084c.593.247.573.538.491.864a1.08,1.08,0,0,0,.054.8l.062.143c.22.512.243.566.182.848a3.857,3.857,0,0,0-.085.652c-.032.507.1.522.679.584a3.811,3.811,0,0,1,1.055.227l.339.135A.5.5,0,0,1,3290.6,1303.128Zm-61.716-9.164c.232.238.5.517.777.806l.482.513c.239.257.548.569.889.9a.5.5,0,0,1-.015-.091c-.044-.543-.759-1.1-1.333-1.539l-.138-.106c-.274-.213-.424-.317-.534-.392C3228.961,1294.022,3228.92,1293.993,3228.881,1293.964Z" transform="translate(0 -737.748)" stroke="#fff" stroke-width="0.1" fill="url(#a)"/><path d="M3444.323,1355.83a1.3,1.3,0,0,1-1.255-.419c-.558-.488-1.046.7-.558.977s.907-.07,1.256.906.7,1.116.976.837S3444.323,1355.83,3444.323,1355.83Z" transform="translate(-189.11 -814.873)" stroke="#fff" stroke-width="0.1" fill="url(#a)"/><path d="M3442.716,1356.732h0c-.363,0-.671-.367-.94-1.121-.192-.538-.358-.567-.632-.615a1.5,1.5,0,0,1-.518-.166.753.753,0,0,1-.284-.884.792.792,0,0,1,.689-.652.648.648,0,0,1,.426.176,1.2,1.2,0,0,0,.808.393,1.248,1.248,0,0,0,.245-.029.235.235,0,0,1,.271.154c.495,1.436.617,2.292.362,2.547A.6.6,0,0,1,3442.716,1356.732Zm-1.684-2.964c-.073,0-.183.12-.231.3-.035.132-.031.3.061.352a1.062,1.062,0,0,0,.364.11c.4.069.733.182,1,.922.285.8.491.807.493.807a.146.146,0,0,0,.079-.046,5.854,5.854,0,0,0-.4-1.882,1.59,1.59,0,0,1-1.25-.5A.2.2,0,0,0,3441.031,1353.768Z" transform="translate(-187.344 -813.109)" stroke="#fff" stroke-width="0.1" fill="url(#a)"/><path d="M3450.658,1433.335c-.073.07-.625.837,0,1.047s1.454,1.185,1.249,0A1.135,1.135,0,0,0,3450.658,1433.335Z" transform="translate(-196.21 -883.66)" stroke="#fff" stroke-width="0.1" fill="url(#a)"/><path d="M3450.017,1433.435h0a1.44,1.44,0,0,1-.668-.3,2.691,2.691,0,0,0-.529-.289.613.613,0,0,1-.44-.452,1.33,1.33,0,0,1,.351-.991.24.24,0,0,1,.133-.064.979.979,0,0,1,.132-.007,1.363,1.363,0,0,1,1.383,1.248c.064.37.042.587-.074.725A.367.367,0,0,1,3450.017,1433.435Zm-1-1.627a.805.805,0,0,0-.17.487c.005.019.017.066.127.1a3.085,3.085,0,0,1,.633.339,3.665,3.665,0,0,0,.336.2,1.569,1.569,0,0,0-.028-.271A.893.893,0,0,0,3449.013,1431.807Z" transform="translate(-194.447 -881.9)" stroke="#fff" stroke-width="0.1" fill="url(#a)"/><path d="M3391.781,1462.216c-.139.209-.767.906,0,.628s1.674-.628.837-.628Z" transform="translate(-144.241 -909.123)" stroke="#fff" stroke-width="0.1" fill="url(#a)"/><path d="M3389.742,1461.383h0a.322.322,0,0,1-.307-.172c-.114-.229.085-.494.3-.774.035-.045.065-.085.084-.115a.237.237,0,0,1,.2-.106h.837c.182,0,.521,0,.568.265.049.281-.238.428-1.323.822A1.063,1.063,0,0,1,3389.742,1461.383Zm0-.474v0Zm.393-.219-.024.031-.073.1c.095-.035.218-.081.345-.13Z" transform="translate(-142.473 -907.36)" stroke="#fff" stroke-width="0.1" fill="url(#a)"/><path d="M3753.437,1413.364c0,.7-.209.489-.349.907s-.7,1.116-.7.488S3753.437,1413.364,3753.437,1413.364Z" transform="translate(-462.446 -866.061)" stroke="#fff" stroke-width="0.1" fill="url(#a)"/><path d="M3750.742,1413.486c-.083,0-.351-.035-.351-.488,0-.727,1.026-1.5,1.143-1.586a.237.237,0,0,1,.377.191c0,.487-.1.63-.237.778a.47.47,0,0,0-.124.2C3751.461,1412.851,3751.1,1413.486,3750.742,1413.486Zm.315-.944a1.385,1.385,0,0,0-.144.247A1.663,1.663,0,0,0,3751.057,1412.542Z" transform="translate(-460.683 -864.299)" stroke="#fff" stroke-width="0.1" fill="url(#a)"/><path d="M3773.775,1403.485c-.837-.14-.907-.418-1.883,0s-1.953.139-.837.976,1.883,1.368,2.232.823.832-1.171.832-1.171Z" transform="translate(-478.461 -857.158)" stroke="#fff" stroke-width="0.1" fill="url(#a)"/><path d="M3771.129,1403.978h0a4.252,4.252,0,0,1-1.981-1.091c-.421-.316-.639-.533-.584-.779s.326-.306.668-.377a4.143,4.143,0,0,0,.8-.228,2.35,2.35,0,0,1,.926-.241,1.99,1.99,0,0,1,.569.1,4.422,4.422,0,0,0,.521.122.237.237,0,0,1,.169.121l.343.628a.236.236,0,0,1-.02.259c0,.006-.481.626-.82,1.155A.678.678,0,0,1,3771.129,1403.978Zm-2.019-1.735a3.536,3.536,0,0,0,.322.265,4.723,4.723,0,0,0,1.7,1h0a.2.2,0,0,0,.193-.112c.261-.407.591-.853.75-1.065l-.216-.393c-.185-.036-.333-.078-.457-.113a1.584,1.584,0,0,0-.44-.084,1.958,1.958,0,0,0-.739.2,4.451,4.451,0,0,1-.893.256C3769.257,1402.21,3769.177,1402.227,3769.111,1402.243Z" transform="translate(-476.695 -855.393)" stroke="#fff" stroke-width="0.1" fill="url(#a)"/><path d="M3850.3,1426.833c-.14-.553-.628-1.167-.976-.72s-1.256.227-1.116.72-.07,1.3.488,1.628,1.325-.191,1.6,0,1.046.732.977.113a2.194,2.194,0,0,0-.7-1.163Z" transform="translate(-546.899 -877.163)" stroke="#fff" stroke-width="0.1" fill="url(#a)"/><path d="M3849.344,1427.335h0a1.975,1.975,0,0,1-.916-.427l-.022-.016a.272.272,0,0,0-.04,0,1.786,1.786,0,0,0-.344.06,2.826,2.826,0,0,1-.636.1,1.1,1.1,0,0,1-.572-.145,1.411,1.411,0,0,1-.542-1.285,2.344,2.344,0,0,0-.054-.482.474.474,0,0,1,.036-.381.843.843,0,0,1,.583-.308.968.968,0,0,0,.538-.242.57.57,0,0,1,.457-.245c.429,0,.8.526.93,1.029l.249.516a2.346,2.346,0,0,1,.74,1.28.522.522,0,0,1-.1.424A.394.394,0,0,1,3849.344,1427.335Zm0-.474v.237l0-.237Zm-.978-.444a.521.521,0,0,1,.307.084l.023.017a2.584,2.584,0,0,0,.585.332s0-.009,0-.014a1.9,1.9,0,0,0-.617-1.01.235.235,0,0,1-.058-.077l-.279-.578a.236.236,0,0,1-.016-.044c-.1-.4-.358-.7-.477-.7-.03,0-.065.039-.083.063a1.34,1.34,0,0,1-.8.409,1.374,1.374,0,0,0-.277.085l0,.015a2.7,2.7,0,0,1,.072.588c.022.447.056.751.309.9a1.292,1.292,0,0,0,.86,0A2.106,2.106,0,0,1,3848.366,1426.417Z" transform="translate(-545.135 -875.399)" stroke="#fff" stroke-width="0.1" fill="url(#a)"/><path d="M3890.9,1455.313c-.862-.187-3.347-.557-2.72,0a4.2,4.2,0,0,0,2.72.558C3891.6,1455.8,3891.9,1455.53,3890.9,1455.313Z" transform="translate(-582.056 -902.779)" stroke="#fff" stroke-width="0.1" fill="url(#a)"/><path d="M3888.642,1454.37h0a3.982,3.982,0,0,1-2.387-.641c-.2-.179-.2-.337-.16-.439.09-.237.405-.269.732-.269a14.084,14.084,0,0,1,2.356.3c.419.091.845.229.827.556-.015.255-.3.414-.853.469C3889,1454.362,3888.824,1454.37,3888.642,1454.37Zm-1.908-.874a4.013,4.013,0,0,0,1.908.4h0c.167,0,.329-.007.467-.021.083-.009.152-.019.212-.031-.063-.019-.142-.039-.239-.06a13.568,13.568,0,0,0-2.255-.289Z" transform="translate(-580.287 -901.018)" stroke="#fff" stroke-width="0.1" fill="url(#a)"/><path d="M3925.685,1463.506c-.837-.344-.279-.972-.837-.344s0,.209.419,1.116.348,1.813,1.046,1.534,2.58-.07,2.162-.906S3925.685,1463.506,3925.685,1463.506Z" transform="translate(-614.259 -909.721)" stroke="#fff" stroke-width="0.1" fill="url(#a)"/><path d="M3924.319,1464.34h0c-.476,0-.616-.469-.764-.964a5.654,5.654,0,0,0-.269-.76,1.118,1.118,0,0,0-.445-.532.422.422,0,0,1-.228-.294c-.022-.178.095-.325.292-.546.243-.273.309-.347.448-.347s.223.083.271.247c.028.1.071.249.369.376.33.08,2.483.63,2.928,1.519a.592.592,0,0,1,.022.571c-.2.368-.8.436-1.442.508a4.032,4.032,0,0,0-.866.154A.845.845,0,0,1,3924.319,1464.34Zm-1.186-2.632a1.6,1.6,0,0,1,.583.71,5.961,5.961,0,0,1,.293.823c.116.389.194.625.309.625h0a.408.408,0,0,0,.141-.034,4.165,4.165,0,0,1,.99-.185c.373-.042,1-.112,1.079-.263.012-.021,0-.072-.03-.133-.269-.537-1.757-1.067-2.632-1.275a.242.242,0,0,1-.036-.011,1.119,1.119,0,0,1-.55-.428l-.02.022C3923.2,1461.625,3923.161,1461.674,3923.133,1461.708Z" transform="translate(-612.495 -907.96)" stroke="#fff" stroke-width="0.1" fill="url(#a)"/><path d="M3907.568,1470.45c-.279.07-1.046-.145-.418.59s.862.945.988.387S3907.568,1470.45,3907.568,1470.45Z" transform="translate(-598.654 -916.382)" stroke="#fff" stroke-width="0.1" fill="url(#a)"/><path d="M3906.16,1470.22h0c-.258,0-.49-.241-.956-.788-.192-.224-.373-.486-.266-.722s.388-.238.613-.24a1.2,1.2,0,0,0,.194-.011.236.236,0,0,1,.18.027c.034.02.843.515.679,1.232C3906.575,1469.842,3906.489,1470.22,3906.16,1470.22Zm-.731-1.273a1.694,1.694,0,0,0,.136.178,5.462,5.462,0,0,0,.551.585c.008-.023.017-.056.027-.1.067-.3-.254-.57-.4-.675-.06,0-.124.006-.189.006Z" transform="translate(-596.888 -914.62)" stroke="#fff" stroke-width="0.1" fill="url(#a)"/><path d="M3923.07,1486.349c-.044.089-.444.786,0,.437s.723.28.444-.348S3923.07,1486.349,3923.07,1486.349Z" transform="translate(-612.716 -930.207)" stroke="#fff" stroke-width="0.1" fill="url(#a)"/><path d="M3921.128,1485.361a.265.265,0,0,1-.231-.129c-.093-.156-.022-.346.174-.714l.011-.021a.465.465,0,0,1,.4-.36c.249,0,.391.254.476.444.137.307.173.39.092.515a.259.259,0,0,1-.209.113h0a.354.354,0,0,1-.135-.032.242.242,0,0,0-.261.035A.529.529,0,0,1,3921.128,1485.361Z" transform="translate(-610.949 -928.448)" stroke="#fff" stroke-width="0.1" fill="url(#a)"/><path d="M3950.65,1503.049a7.937,7.937,0,0,1,0,1.883s-1.464-.14-1.255.489,1.31.976,1.317,1.882a15.182,15.182,0,0,0,0,1.814c.078.419.5,1.743,1.054,1.394s.349-.906,1.395-1.465a5,5,0,0,1,1.953-.766c1.325-.349,2.859-1.058,2.022-1.471s-.558.355-1.325-.97-1.255-2.092-2.093-2.371-2.789-1.465-2.789-1.116A1.331,1.331,0,0,1,3950.65,1503.049Z" transform="translate(-636.087 -944.446)" stroke="#fff" stroke-width="0.1" fill="url(#a)"/><path d="M3949.814,1509.042c-.774,0-1.1-1.631-1.1-1.646a4.294,4.294,0,0,1-.023-.942c.01-.257.022-.549.019-.912,0-.429-.324-.714-.664-1.016a2.028,2.028,0,0,1-.642-.8.509.509,0,0,1,.06-.477c.164-.226.522-.336,1.1-.336h.109a6.6,6.6,0,0,0-.017-1.582.236.236,0,0,1,.046-.2,1.079,1.079,0,0,0,.227-.549.3.3,0,0,1,.324-.3,5.147,5.147,0,0,1,1.521.619,12.382,12.382,0,0,0,1.255.572c.93.31,1.451,1.144,2.223,2.478a3.77,3.77,0,0,0,.48.715l.054,0a1.265,1.265,0,0,1,.69.164c.35.172.381.407.368.531-.072.724-2.041,1.278-2.435,1.38l-.34.09a3.168,3.168,0,0,0-1.093.4c-.117.064-.265.146-.468.255a1.823,1.823,0,0,0-.858.846,1.46,1.46,0,0,1-.522.61A.579.579,0,0,1,3949.814,1509.042Zm-1.254-5.65c-.484,0-.678.091-.712.14-.007.009,0,.042.006.049a1.686,1.686,0,0,0,.506.591,1.893,1.893,0,0,1,.823,1.366c0,.376-.01.686-.02.936a3.92,3.92,0,0,0,.016.836c.1.538.433,1.259.635,1.259a.114.114,0,0,0,.06-.022,1.016,1.016,0,0,0,.359-.438,2.266,2.266,0,0,1,1.05-1.034c.2-.107.347-.188.461-.252a3.56,3.56,0,0,1,1.2-.447l.339-.089a4.076,4.076,0,0,0,2.083-.965,1.08,1.08,0,0,0-.105-.063.891.891,0,0,0-.4-.116l-.057,0-.062,0c-.311,0-.464-.192-.9-.951-.786-1.357-1.235-2.023-1.962-2.265a12.584,12.584,0,0,1-1.316-.6,12.585,12.585,0,0,0-1.183-.541,1.623,1.623,0,0,1-.243.551,8.669,8.669,0,0,1-.017,1.853.234.234,0,0,1-.257.21S3948.729,1503.391,3948.56,1503.391Z" transform="translate(-634.321 -942.682)" stroke="#fff" stroke-width="0.1" fill="url(#a)"/></g></svg>